<svg xmlns="http://www.w3.org/2000/svg" viewBox="0 0 352.94 391.69"><defs><style>.cls-1{fill:#b97af7;}.cls-2{fill:#63ed60;}.cls-3{fill:#85c7f2;}</style></defs><g id="Layer_2" data-name="Layer 2"><g id="Icons"><g id="Person"><path class="cls-1" d="M185.17,391.69A48.32,48.32,0,0,0,200.82,386l27.48-15.86V232.74l20-11.54V358.55l43.14-24.91V196.3l19.85-11.47V322.18l17.31-10A48.7,48.7,0,0,0,352.94,270V122.48a48.65,48.65,0,0,0-3.22-17.43l-164.55,95Z"/><path class="cls-2" d="M0,122.48V270a48.7,48.7,0,0,0,24.35,42.18L152.12,386a48.45,48.45,0,0,0,15.09,5.64V345.86L48.84,277.52V254.44l118.37,68.34V273L48.84,204.63V181.7L167.21,250V200.23L3.07,105.47A48.59,48.59,0,0,0,0,122.48Z"/><path class="cls-3" d="M328.59,80.29,258.8,40l-58-33.48a48.73,48.73,0,0,0-48.69,0L93.83,40.18,24.36,80.29a48.29,48.29,0,0,0-12.19,10l164,94.66L340.57,90A49,49,0,0,0,328.59,80.29Zm-196.4-32.8.05-.61,0-.62.1-.61.11-.61.15-.62.16-.61.19-.61.21-.6.24-.61.28-.6.29-.6.32-.6.34-.58.37-.58.39-.6.42-.56.45-.58.47-.57.5-.56.51-.55.55-.55.57-.55.6-.53.62-.53.65-.52.68-.52.69-.51.73-.5.76-.49.77-.48.79-.49.83-.45.84-.45.85-.43.86-.42.88-.41.89-.39.92-.37.91-.35.93-.36.94-.32.95-.32,1-.31,1-.27,1-.28,1-.26,1-.24,1-.22,2-.42,1-.18,1-.16,1-.16,1.05-.15,1-.11,1-.12,1.07-.09,1-.08,1.06-.07,1.07-.05,1.06,0,1.07,0,1.06,0,2.14,0,1.06,0,1.07.05,1.06.07,1.07.08,1.05.09,1,.12,1.05.11,1,.15,1,.16,1,.16,1,.18,1,.21,1,.21,1,.22,1,.24,1,.26,1,.28,1,.27,1,.31,1,.32.94.32.93.36L202,27l.91.37.89.39.88.41.87.42.84.43.84.45.83.45.8.49.78.48.74.49.73.5.71.51,1.32,1,.61.53.6.53.58.55.55.55.52.55.5.56.47.57.43.58.42.56.41.6.37.58.34.58.32.6.29.6.26.6.24.61.23.6.35,1.22.13.62.11.61.1.61.06.62,0,.61v1.23l0,.61-.06.61-.1.62-.11.61-.13.61L220.31,53l-.23.6-.24.61-.26.6-.29.59L219,56l-.34.58-.37.58-.41.59-.42.58-.43.58-.47.56-.5.57-.52.55-.55.54-.58.55-.6.54-.61.53-.66.52-.66.51-.71.52-.73.5-.74.48-.78.49-.8.48-.83.45-.84.46-.84.43-.87.42-.88.4-.89.39-.91.37-.92.36-.93.35-.94.33-1,.32-1,.31-1,.27-1,.27-1,.26-1,.24-1,.23-1,.21-1,.21-1,.18-1,.16-1,.16-1,.15-1.05.11-1,.11-1.05.1-1.07.08-1.06.06-1.07,0-1.06,0-1.07,0h-2.13l-1.07,0-1.06,0-1.07,0-1.06-.06-1-.08-1.07-.1-1-.11-1-.11L166.06,73l-1-.16-1-.16-1-.18-2-.42-1-.23-1-.24-1-.26-1-.27-1-.27-1-.31-.95-.32-.94-.33-.93-.35-.91-.36-.92-.37-.89-.39-.88-.4-.86-.42-.85-.43-.84-.46-.83-.45-.79-.48-.77-.49-.76-.48-.73-.5-.69-.52-.68-.51-.65-.52-.62-.53-.6-.54-.57-.55-.55-.54-.51-.55-.5-.57-.47-.56-.45-.58-.42-.58-.39-.59-.37-.58-.34-.58-.32-.6-.29-.59-.28-.6-.24-.61L133,53l-.19-.61-.16-.62-.15-.61-.11-.61-.1-.62,0-.61-.05-.61V47.49Zm44.45,116.24-86.54-50,2.26-1.27,2.31-1.23L97,110.07l2.39-1.15,2.42-1.11,2.45-1.08,2.5-1,2.52-1,2.57-.95,2.59-.91,2.62-.87,2.65-.82,2.68-.79,2.71-.76,2.73-.7,2.74-.67,2.78-.63,2.79-.58,2.82-.55,2.83-.5,2.84-.47,2.87-.42,2.87-.39,2.89-.34,2.89-.3,2.92-.26,2.91-.23,2.92-.18,2.94-.14,2.92-.1,2.94-.06,2.93,0,2.94,0,2.94.06,2.94.1,2.92.14,2.92.18,2.92.23,2.91.26,2.9.3,2.89.34,2.87.39,2.86.42,2.84.47,2.84.5,2.81.55,2.79.58,2.78.63,2.74.67,2.73.7,2.71.76,2.68.79,2.65.82,2.63.87,2.58.91,2.57.95,2.53,1,2.49,1,2.47,1.08,2.42,1.11,2.37,1.15,2.36,1.19,2.31,1.23,2.26,1.27Z"/></g></g></g></svg>